<svg xmlns="http://www.w3.org/2000/svg" xmlns:xlink="http://www.w3.org/1999/xlink" width="24" height="24" viewBox="0 0 24 24">
  <defs>
    <path id="a" d="M11.5400731,15.924361 C11.7559238,15.5524655 11.9724618,15.1798825 12.1883125,14.807987 C12.3746039,15.0004652 12.5437098,15.175758 12.6873811,15.3256161 C12.861299,15.5084704 13.033842,15.6920122 13.2256329,15.8948018 C12.6942554,15.9037383 12.192437,15.906488 11.6926809,15.9216113 C11.6418116,15.9229861 11.5909424,15.924361 11.5400731,15.924361 M22.9492231,15.3647991 C22.4240324,15.8453074 21.9098404,16.3388767 21.4025226,16.8379454 C21.2072947,17.0290488 21.0430007,17.2503988 20.8670206,17.4600627 C20.38445,18.0361227 19.8613216,18.5661254 19.1855853,18.9180856 C18.5497196,19.2494233 17.9317268,19.2721082 17.2882994,18.8967755 C16.1554273,18.2354752 14.903631,18.0086258 13.6085272,17.9749421 C13.339745,17.9687553 13.0723377,17.9756295 12.8069926,18.0010641 C12.5409602,18.0258113 12.2763025,18.0677441 12.0123323,18.130987 C11.6644966,18.2134777 11.2967256,18.2148525 10.9372036,18.2512859 L10.9365162,18.2512859 C10.8966457,18.254723 10.8560878,18.2471614 10.8148425,18.2444117 C10.8107179,18.2444117 10.8086556,18.2423494 10.8045311,18.241662 C10.6986681,18.2327255 10.6134277,18.210728 10.5371238,18.1818562 C10.5199382,18.174982 10.5027527,18.1681078 10.486942,18.1605461 C10.4168249,18.1275499 10.3563317,18.0883668 10.3137115,18.0409346 C10.3130241,18.0409346 10.3130241,18.0409346 10.3130241,18.0402472 L10.3123367,18.0402472 C10.2704039,17.9941899 10.2408447,17.9419458 10.2222843,17.8848897 C10.2195346,17.8780155 10.2188472,17.8697664 10.2167849,17.8628922 C10.2037239,17.8147727 10.1968497,17.7652782 10.1961623,17.7130341 C10.1961623,17.696536 10.1968497,17.6800379 10.1982245,17.6635397 C10.2016616,17.616795 10.2085359,17.5693628 10.2209095,17.5205559 C10.225034,17.5033703 10.2284711,17.4861847 10.2339705,17.4696866 C10.2532183,17.4050689 10.2779655,17.3411386 10.3109618,17.2765209 C10.3528946,17.1940302 10.4051387,17.1218508 10.4608199,17.0558583 C10.4979407,17.0111758 10.5419357,16.9754299 10.5845559,16.9396839 C10.6038038,16.9231858 10.6209893,16.9066876 10.6402372,16.8915643 C10.6979806,16.8496316 10.7625983,16.8159479 10.8299657,16.7870761 C10.8354651,16.7843264 10.8402771,16.7815767 10.8464639,16.7795145 C10.9200181,16.7485805 10.9990717,16.7272704 11.0822498,16.7135219 C11.1001228,16.7114597 11.1186832,16.70871 11.1372436,16.7066477 C11.1764266,16.6983986 11.2142349,16.6894621 11.2575425,16.6887747 C11.2761029,16.6887747 11.2946633,16.6880873 11.3132237,16.6880873 C12.4770299,16.6695269 13.6422109,16.6489042 14.8067045,16.6282815 C14.8273271,16.6282815 14.8479498,16.6262193 14.8747593,16.6234696 C14.8988191,16.6207199 14.9276908,16.6165954 14.9654991,16.6124708 C14.5750431,16.2034545 14.2093344,15.821935 13.8422508,15.4397282 C13.4222357,15.0011527 13.002908,14.563952 12.5842678,14.1260639 C11.9848354,13.5018844 11.3867779,12.87633 10.7887204,12.2521504 C10.5384986,11.9902424 10.2882769,11.7290219 10.0373677,11.4678014 C9.55823426,10.9680453 9.07978825,10.4676018 8.60065482,9.96784568 L8.60065482,9.96715825 C8.43842313,9.79805234 8.08852512,9.43303103 7.96685135,9.30585788 C7.89948395,9.23574079 7.83899078,9.16149917 7.78674667,9.08450786 L7.69119495,8.90371576 C7.68775784,8.89340443 7.68294589,8.88446794 7.67882135,8.87346918 C7.65544899,8.80472693 7.63895085,8.73117273 7.63895085,8.65074431 C7.63895085,8.30153372 7.87611159,7.95232313 8.20194982,7.83271163 C8.20951146,7.82996194 8.21638569,7.83064936 8.22394733,7.82789967 C8.30643802,7.79971535 8.3854916,7.7859669 8.46110807,7.7859669 C8.46866972,7.7859669 8.47623136,7.78871659 8.48448043,7.78871659 C8.55940948,7.7921537 8.63227625,7.807277 8.7010185,7.83477389 C8.70170592,7.83477389 8.70170592,7.83546132 8.70239334,7.83546132 C8.70445561,7.83614874 8.7072053,7.83821101 8.70926756,7.83889843 C8.76701105,7.86295821 8.82337969,7.89114253 8.87699864,7.93032561 C8.87974833,7.93238788 8.88249802,7.93582499 8.88524771,7.93788726 C8.93817923,7.97569549 8.98904849,8.0190031 9.03785548,8.06987236 L9.72252822,8.78685395 C9.94044113,9.01439077 10.1576666,9.2419276 10.3755795,9.47015184 C10.6450491,9.75268246 10.9158935,10.0359005 11.1853631,10.3184311 C11.2699161,10.407796 11.3551565,10.4964735 11.4403969,10.585151 C11.98896,11.1605236 12.5382105,11.7358962 13.087461,12.3105813 C13.1967612,12.4260683 13.3094984,12.5408678 13.4311722,12.6652913 C13.4387338,12.6728529 13.4449206,12.6790397 13.4517949,12.6866014 C13.6353367,12.5119961 13.809942,12.344265 13.9996705,12.1634729 C13.9405522,12.1009175 13.8841836,12.0417991 13.8250652,11.9799311 C13.7102657,11.8582573 13.5982158,11.7393333 13.4841037,11.6190343 C13.3177475,11.4437416 13.149329,11.2663866 12.9836602,11.0924688 C12.7348133,10.8298734 12.480467,10.5734648 12.2384943,10.3046827 C11.8989076,9.92522549 11.9490895,9.42409454 12.3477945,9.12369094 C12.4729053,9.02951407 12.6117647,8.98689388 12.7499366,8.99033099 C12.8571745,8.99308068 12.9644124,9.02057758 13.0675257,9.08588271 C13.1795756,9.15599979 13.2813141,9.24742698 13.3741161,9.34366611 C13.7405123,9.72312329 14.1048462,10.1053302 14.4698675,10.487537 C14.584667,10.607836 14.6994666,10.7274475 14.8142661,10.847059 C14.841763,10.8759307 14.8733844,10.9061773 14.908443,10.9419233 L14.9208166,10.9542969 C15.1022961,10.7817538 15.2782763,10.6133353 15.4686923,10.4325432 C15.4185104,10.3754872 15.3758902,10.3246179 15.3298329,10.2751235 C15.3291455,10.2751235 15.3291455,10.2744361 15.3284581,10.2737487 C15.3050857,10.2490014 15.2810259,10.2249417 15.2576536,10.2001945 C15.0638005,9.99671742 14.8692599,9.7939278 14.6754068,9.59045077 C14.558545,9.46808957 14.4423706,9.3464158 14.3248214,9.22405461 C14.1481538,9.0398254 14.0340417,8.82878672 14.0526021,8.56619135 C14.0697876,8.32903062 14.1708387,8.14686367 14.337195,8.01487857 C14.3928762,7.97088353 14.4554316,7.93238788 14.5248613,7.90007902 C14.6039149,7.86295821 14.6802187,7.8471475 14.7551478,7.84302296 C14.8438253,7.83821101 14.9270034,7.85814626 15.0074318,7.89114253 C15.0232425,7.89801676 15.0390532,7.90420356 15.0541765,7.91245263 C15.1332301,7.95163571 15.2088466,8.00113012 15.2775888,8.06849752 C15.3642041,8.15305048 15.4460073,8.24310281 15.5298729,8.33040546 C15.701041,8.50844787 15.8715218,8.68649028 16.0433774,8.86315784 C16.4083987,9.23849048 16.7754823,9.61176086 17.1549395,9.99809226 C17.3398561,9.81386305 17.5117117,9.64338229 17.691129,9.46465246 C17.3962247,9.16012433 17.1081947,8.87209433 16.8284138,8.57581527 C16.7026155,8.44039305 16.5713178,8.30153372 16.4805781,8.14342656 C16.3939628,7.99150621 16.3733402,7.82446256 16.4097736,7.66429313 C16.446207,7.50412371 16.5396964,7.35151593 16.6813054,7.22984216 C16.7576093,7.16384961 16.8414748,7.12397911 16.9287775,7.09716963 C17.123318,7.03667646 17.336419,7.06761047 17.5357715,7.20578237 C17.601764,7.25321452 17.6636321,7.30820832 17.7206881,7.36732664 C19.1381532,8.83841063 20.5638673,10.301933 21.9668964,11.7874528 C22.1277533,11.958621 22.2796736,12.1352886 22.4199078,12.3195178 C22.55533,12.4982476 22.6797535,12.6838517 22.7904285,12.87633 C22.7931782,12.8818293 22.7979902,12.8866413 22.8007398,12.8921407 C23.0310264,13.2963451 23.2021945,13.7328583 23.2881223,14.214054 C23.3664885,14.6512547 23.2998085,15.042398 22.9492231,15.3647991 M7.38941651,12.290646 C4.85007807,12.2851467 2.84692913,10.2579379 2.85655304,7.7000391 C2.86617696,5.19438436 4.90575929,3.16648821 7.41622598,3.16786305 C9.94181597,3.1692379 11.9834606,5.21981899 11.9807109,7.74953351 C11.9807109,8.01556599 11.953214,8.27403682 11.909219,8.52632085 C11.6246261,8.71192491 11.4403969,8.98689388 11.3249099,9.32579313 C11.0526906,9.04669963 10.4725061,8.45757861 9.9397537,7.91588974 C9.94525308,7.85195945 9.96175122,7.79077886 9.9610638,7.72547373 C9.95075246,6.3451295 8.8055067,5.19850889 7.4258499,5.18751014 C6.0372566,5.17444911 4.86588879,6.34925403 4.8693259,7.74953351 C4.87345044,9.1285029 6.0186962,10.2723738 7.40247754,10.279248 C7.52208904,10.2799355 7.63826343,10.2689367 7.75306297,10.2524386 C8.18957621,10.7027002 8.74295126,11.2698237 9.32794775,11.8706309 C8.74020157,12.1387257 8.085088,12.2920209 7.38941651,12.290646 M23.9562969,14.0311996 C23.7507576,12.8921407 23.1705731,11.9421229 22.382787,11.1158411 C21.0265026,9.69150186 19.6550948,8.28022362 18.2905613,6.86207116 C17.9647231,6.52317191 17.5605187,6.36575217 17.0978834,6.35819053 C16.4228346,6.34787919 15.9437012,6.70946338 15.7484732,7.36113984 C15.7409115,7.38657447 15.7306002,7.41132168 15.7175392,7.4456928 C15.3848267,7.23052958 15.0376784,7.12604137 14.6774691,7.14666405 C14.2251451,4.36329065 12.2034357,2.0748614 9.47299388,1.28913757 C6.56794671,0.452544476 3.45804766,1.46855482 1.60956876,3.8559729 C-0.21760004,6.21658151 -0.4217645,9.50727265 1.08300319,12.0734206 C2.43653794,14.3845348 3.77769909,16.7032106 5.12298478,19.0191367 C5.87914944,20.3224897 6.631877,21.6306545 7.42310021,23 C7.54477398,22.8006475 7.6190156,22.6824108 7.68844526,22.5627993 C8.4404854,21.2670081 9.19183811,19.9719042 9.94387824,18.6768004 C10.1397936,18.8142849 10.3852034,18.9091492 10.6746083,18.9400832 C11.0973731,18.9847656 11.536636,18.9517693 11.9614631,18.8995252 C12.5100261,18.8314704 13.0503402,18.707047 13.6112769,18.7262948 C14.7819573,18.7675401 15.9196414,18.9558939 16.9356517,19.5676998 C17.7928675,20.0846415 18.6342725,19.995964 19.4743027,19.6000087 C20.3198323,19.2019911 20.9550106,18.5365662 21.5461939,17.8271463 C21.7235489,17.611983 21.9160272,17.4078186 22.1153797,17.2119032 C22.6020748,16.7334572 23.0970189,16.2625728 23.5871511,15.7875639 C23.8188125,15.5634642 23.964546,15.2857456 23.9851687,14.9688438 C24.0057914,14.6581289 24.0119782,14.3364152 23.9562969,14.0311996"/>
  </defs>
  <g fill="none" fill-rule="evenodd">
    <mask id="b" fill="white">
      <use xlink:href="#a"/>
    </mask>
    <use fill="#000000" xlink:href="#a"/>
    <g fill="#3C3C3C" mask="url(#b)">
      <rect width="24" height="24"/>
    </g>
  </g>
</svg>
